# xmcd
#
# Track frame offsets:
#	150
#	17924
#	36104
#	50412
#	68057
#	81519
#	97606
#	115455
#	131917
#	151233
#
# Disc length: 2189 seconds
# Revision: 0
# Processed by: cddbd v1.5.1PL0 Copyright (c) Steve Scherf et al.
# Submitted via: cdrLabel 7.1
#
DISCID=7f088b0a
DTITLE=Melonie Cannon - Melonie Cannon
DYEAR=1900
DGENRE=
TTITLE0=Nothin' to Lose
TTITLE1=Tennessee Roads
TTITLE2=I Feel You Everywhere
TTITLE3=What Took You So Long
TTITLE4=Westbound Trains
TTITLE5=Sweeter Than Sugarcane
TTITLE6=Whiskey Lullaby
TTITLE7=Separate Ways
TTITLE8=I'll Be Back
TTITLE9=Nobody Hops a Train Anymore
EXTD=
EXTT0=
EXTT1=
EXTT2=
EXTT3=
EXTT4=
EXTT5=
EXTT6=
EXTT7=
EXTT8=
EXTT9=
PLAYORDER=
